<svg xmlns="http://www.w3.org/2000/svg" width="777.86" height="240" viewBox="0 0 777.86 240"><path d="M293.293 92.805h-19.26v42.066h4.745v-16.58h12.142l1.85-.03c4.95 0 8.325-.874 10.123-2.62s2.697-5.023 2.697-9.831c0-5.013-.864-8.433-2.59-10.263-1.725-1.828-4.96-2.742-9.707-2.742zm5.779 20.031c-1.326.966-4.341 1.449-9.045 1.449h-11.249V96.81h12.758l1.819.03c3.349 0 5.47.54 6.364 1.619s1.34 3.651 1.34 7.72c0 3.472-.663 5.691-1.987 6.656v.001zm55.715-20.463c-6.883 0-11.583 1.023-14.099 3.067-2.517 2.045-3.775 5.86-3.775 11.449l-.062 3.974v2.96c0 9.675.972 15.674 2.913 17.996 1.94 2.322 6.949 3.482 15.023 3.482 8.115 0 13.128-1.17 15.039-3.512s2.865-8.517 2.865-18.521c0-9.286-.996-15.09-2.988-17.412-1.993-2.322-6.965-3.483-14.916-3.483zm13.375 21.45c0 8.69-.566 13.775-1.695 15.254-1.129 1.479-5.033 2.218-11.71 2.218-6.658 0-10.551-.74-11.68-2.218s-1.695-6.564-1.695-15.254c0-8.67.565-13.745 1.694-15.224 1.13-1.48 5.023-2.22 11.68-2.22 5.794 0 9.47.627 11.033 1.88 1.562 1.254 2.342 4.202 2.342 8.845l.031 3.976v2.743zm42.847-21.018h-4.745v42.066h26.38v-4.407h-21.635v-37.66.001zm71.202 14.207l-1.755 2.742-.833 1.356-.831 1.387h-.124l-.833-1.387c-.275-.46-.563-.911-.861-1.356l-1.727-2.742-9.028-14.207H460.7l15.501 24.5v17.566h4.746v-17.566l15.904-24.5h-5.64l-9 14.207zm42.663-9.8h13.713v37.659h4.749V97.21h13.589v-4.406h-32.05v4.406l-.001.002zm62.728 37.659h27.026v-4.007h-22.28v-15.717h21.356v-4.006h-21.356V96.81h22.28v-4.006h-27.026v42.067zm88.921-11.558c0 3.555-.694 5.774-2.082 6.658-1.385.883-4.872 1.324-10.461 1.324-5.875 0-9.317-1.016-10.325-3.052-1.005-2.033-1.509-8.955-1.509-20.77 0-5.135.75-8.269 2.25-9.398s5.64-1.696 12.418-1.696c3.864 0 6.343.484 7.443 1.449 1.1.966 1.648 3.144 1.648 6.533l.033 1.295h4.713l-.03-1.14c0-4.766-.93-7.982-2.789-9.646-1.858-1.665-5.47-2.497-10.833-2.497-7.91 0-13.055.864-15.438 2.59-2.034 1.478-3.267 3.157-3.7 5.038-.43 1.88-.646 6.466-.646 13.76 0 9.328.955 15.25 2.867 17.764 1.91 2.518 6.39 3.776 13.435 3.776 7.87 0 12.778-.714 14.73-2.142 1.953-1.426 2.928-5.007 2.928-10.739v-1.602h-4.715l.063 2.495zm67.502-11.956h-24.593V92.805h-4.745v42.066h4.745v-19.507h24.593v19.507h4.745V92.805h-4.745v18.552zm26.347-28.173c-4.128 0-7.486 3.36-7.486 7.487s3.358 7.487 7.486 7.487 7.488-3.359 7.488-7.487-3.36-7.487-7.488-7.487zm0 12.381c-2.697 0-4.893-2.195-4.893-4.894s2.196-4.894 4.893-4.894c2.7 0 4.895 2.196 4.895 4.894s-2.196 4.894-4.895 4.894z" fill="#013a66"/><path d="M112.648 0C58.58 0 13.407 38.094 2.515 88.92h45.9c9.647-26.113 34.775-44.732 64.233-44.732 37.81 0 68.46 30.652 68.46 68.46 0 37.808-30.65 68.46-68.46 68.46-29.588 0-54.768-18.748-64.337-45.017H0v59.695C0 220.214 19.786 240 44.188 240v-37.887c18.982 14.548 42.71 23.184 68.46 23.184 62.211 0 112.649-50.438 112.649-112.649C225.297 50.412 174.859 0 112.648 0zm188.13 187.817l.026 1.402.027 1.375h-.107l-1.726-2.884-1.752-2.857-3.505-5.769-13.451-21.942h-6.793v36.795h4.151v-30.488l-.026-1.402-.027-1.374h.108l1.24 2.048 1.24 2.049 2.506 4.125 15.42 25.042h6.82v-36.795h-4.152v30.675zm26.923-30.675l-13.478 36.795h4.393l2.831-7.79h18.627l2.857 7.79h4.34l-13.748-36.795h-5.822zm-5.068 25.878l8.06-22.482 8.167 22.482h-16.227zm61.213 4.797l.026 1.402.027 1.375h-.107l-1.726-2.884-1.752-2.857-3.504-5.769-13.452-21.942h-6.793v36.795h4.152v-30.488l-.027-1.402-.027-1.374h.108l1.24 2.048 1.24 2.049 2.507 4.125 15.419 25.042h6.82v-36.795h-4.151v30.675zm40.86-3.989c0 3.11-.607 5.05-1.82 5.822-1.213.774-4.264 1.16-9.152 1.16-5.14 0-8.15-.89-9.03-2.67-.88-1.779-1.321-7.834-1.321-18.167 0-4.494.656-7.234 1.968-8.222s4.933-1.482 10.863-1.482c3.379 0 5.549.421 6.51 1.266.962.845 1.442 2.75 1.442 5.715l.027 1.132h4.124l-.026-.997c0-4.17-.813-6.982-2.44-8.438-1.626-1.456-4.785-2.183-9.475-2.183-6.919 0-11.42.755-13.505 2.264-1.78 1.294-2.857 2.763-3.234 4.408-.378 1.644-.567 5.656-.567 12.036 0 8.159.836 13.339 2.507 15.54s5.589 3.301 11.753 3.301c6.883 0 11.178-.624 12.885-1.873s2.561-4.38 2.561-9.394v-1.401h-4.125l.055 2.183zm37.194-26.686l-7.87 12.426-1.537 2.399-.728 1.186-.728 1.213h-.107l-.729-1.213a26.27 26.27 0 0 0-.755-1.186l-1.509-2.399-7.898-12.426h-4.825l13.558 21.43v15.365h4.152V178.57l13.91-21.43H461.9z" fill="#0097f0"/></svg>